{"title":"Utomlyonnye Solntsem 2 Tsitadel *2011* [O.TS.XviD-miguel] [RUS]","uid":6374767,"size":1475351956,"categoryP":"video","categoryS":"movies","magnet":"?xt=urn:btih:f67887f67348f86bcbbe0be11730cba0c963963a&amp;dn=Utomlyonnye+Solntsem+2+Tsitadel+%2A2011%2A+%5BO.TS.XviD-miguel%5D+%5BRUS%5D&amp;tr=udp%3A%2F%2Ftracker.openbittorrent.com%3A80&amp;tr=udp%3A%2F%2Fopen.demonii.com%3A1337&amp;tr=udp%3A%2F%2Ftracker.coppersurfer.tk%3A6969&amp;tr=udp%3A%2F%2Fexodus.desync.com%3A6969","seeders":1,"leechers":1,"uploader":"miguel1983","files":-1,"time":1304817576,"description":" &lt;a href=&quot;http://img291.imageshack.us/img291/2/46a3c3b6115878fb87eb2b9.jpg&quot; rel=&quot;nofollow&quot; target=&quot;_NEW&quot;&gt;http://img291.imageshack.us/img291/2/46a3c3b6115878fb87eb2b9.jpg&lt;/a&gt;\n\nCountry.......: France, Germany, Russia\nGenre.........: Drama, War\nDate release..: 05.05.2011 [World]\nDirector......: Nikita Mikhalkov\nWriters.......: Rustam Ibragimbekov, Nikita Mikhalkov\nDuration......: 145 min.\nMore..........: http://www.imdb.com/title/tt1912518\nTrailer.......: http://movie.mtime.com/148083/trailer/32178.html\n\nPilot :\nKotov returns home with a view to memories, such as in the past. Everything has changed his whole life, now will have to fight the good name and his love.\n\nCats :\nNikita Mikhalkov   \t ...  \tCol. Sergei Petrovich Kotov\nOleg Menshikov \t... \tDmitriy Arsentyev\nVladlen Davydov \t... \tVsevolod Konstantinovich\nDmitriy Dyuzhev \t... \tIvan\nViktoriya Tolstoganova \t... \tMarusya Kotova\nSergei Bachursky \t\t\nVladimir Ilin \t... \tKirik\nRoman Madyanov \t\t\nSergey Makovetskiy \t\t\nAndrey Merzlikin \t\t\nAnna Mikhalkova \t\t\nNadezhda Mikhalkova \t\t\nAleksey Panin \t\t\nEvelina Sakuro \t\t\nMaksim Sukhanov\n\nData Technical :\n!!! SAMPLE !!!\nAudio.....: Russian\nSubtitles.: None\nFormat                           : AVI\nFormat/Info                      : Audio Video Interleave\nFile size                        : 1.37 GiB\nDuration                         : 2h 24mn\nOverall bit rate                 : 1 355 Kbps\nWriting application              : VirtualDubMod 1.5.4.1 (build 2178/release)\nWriting library                  : VirtualDubMod build 2178/release\nVideo\nID                               : 0\nFormat                           : MPEG-4 Visual\nFormat profile                   : Advanced Simple@L5\nFormat settings, BVOP            : Yes\nFormat settings, QPel            : No\nFormat settings, GMC             : No warppoints\nFormat settings, Matrix          : Custom\nCodec ID                         : XVID\nCodec ID/Hint                    : XviD\nDuration                         : 2h 24mn\nBit rate                         : 1 218 Kbps\nWidth                            : 720 pixels\nHeight                           : 320 pixels\nDisplay aspect ratio             : 2.25:1\nFrame rate                       : 25.000 fps\nColor space                      : YUV\nChroma subsampling               : 4:2:0\nBit depth                        : 8 bits\nScan type                        : Progressive\nBits/(Pixel*Frame)               : 0.211\nStream size                      : 1.23 GiB (90%)\nWriting library                  : XviD 58\nAudio\nID                               : 1\nFormat                           : MPEG Audio\nFormat version                   : Version 1\nFormat profile                   : Layer 3\nMode                             : Joint stereo\nCodec ID                         : 55\nCodec ID/Hint                    : MP3\nDuration                         : 2h 24mn\nBit rate mode                    : Constant\nBit rate                         : 128 Kbps\nChannel(s)                       : 2 channels\nSampling rate                    : 48.0 KHz\nStream size                      : 132 MiB (9%)\nAlignment                        : Aligned on interleaves\nInterleave, duration             : 40 ms (1.00 video frame)\nInterleave, preload duration     : 504 ms\n\nScreen : &lt;a href=&quot;\nhttp://img820.imageshack.us/img820/1927/utomlyonnyesolntsem2tsi.jpg&quot; rel=&quot;nofollow&quot; target=&quot;_NEW&quot;&gt;\nhttp://img820.imageshack.us/img820/1927/utomlyonnyesolntsem2tsi.jpg&lt;/a&gt; &lt;a href=&quot;\nhttp://img546.imageshack.us/img546/1927/utomlyonnyesolntsem2tsi.jpg&quot; rel=&quot;nofollow&quot; target=&quot;_NEW&quot;&gt;\nhttp://img546.imageshack.us/img546/1927/utomlyonnyesolntsem2tsi.jpg&lt;/a&gt; &lt;a href=&quot;\nhttp://img34.imageshack.us/img34/1927/utomlyonnyesolntsem2tsi.jpg&quot; rel=&quot;nofollow&quot; target=&quot;_NEW&quot;&gt;\nhttp://img34.imageshack.us/img34/1927/utomlyonnyesolntsem2tsi.jpg&lt;/a&gt; &lt;a href=&quot;\nhttp://img28.imageshack.us/img28/1927/utomlyonnyesolntsem2tsi.jpg&quot; rel=&quot;nofollow&quot; target=&quot;_NEW&quot;&gt;\nhttp://img28.imageshack.us/img28/1927/utomlyonnyesolntsem2tsi.jpg&lt;/a&gt; &lt;a href=&quot;\nhttp://img709.imageshack.us/img709/1927/utomlyonnyesolntsem2tsi.jpg&quot; rel=&quot;nofollow&quot; target=&quot;_NEW&quot;&gt;\nhttp://img709.imageshack.us/img709/1927/utomlyonnyesolntsem2tsi.jpg&lt;/a&gt;","torrent":{"xt":"urn:btih:f67887f67348f86bcbbe0be11730cba0c963963a","amp;dn":"Utomlyonnye+Solntsem+2+Tsitadel+%2A2011%2A+%5BO.TS.XviD-miguel%5D+%5BRUS%5D","amp;tr":["udp%3A%2F%2Ftracker.openbittorrent.com%3A80","udp%3A%2F%2Fopen.demonii.com%3A1337","udp%3A%2F%2Ftracker.coppersurfer.tk%3A6969","udp%3A%2F%2Fexodus.desync.com%3A6969"],"infoHash":"f67887f67348f86bcbbe0be11730cba0c963963a","infoHashBuffer":{"type":"Buffer","data":[246,120,135,246,115,72,248,107,203,190,11,225,23,48,203,160,201,99,150,58]},"announce":[],"urlList":[]}}